<svg width="19" height="36" viewBox="0 0 19 36" fill="none" xmlns="http://www.w3.org/2000/svg">
<mask id="mask0_801_1069" style="mask-type:alpha" maskUnits="userSpaceOnUse" x="0" y="0" width="19" height="36">
<rect width="19" height="36" fill="white"/>
</mask>
<g mask="url(#mask0_801_1069)">
<path fill-rule="evenodd" clip-rule="evenodd" d="M6.92673 33.7348C6.34673 33.6147 5.9654 33.2812 5.81073 32.8542C5.11206 30.426 5.03738 28.2112 5.03738 24.1552C5.03738 18.9785 4.62539 16.8971 1.76672 13.3348C1.24805 12.6944 0.996047 12.4008 1.00005 11.9072C1.07205 7.46427 2.35204 4.3022 4.99072 2.06073C6.36672 1.43365 7.65873 1.11343 8.99873 1.02004C9.3214 0.993321 9.65474 0.993321 10.0001 1.02004C11.3401 1.1134 12.6321 1.43365 14.0094 2.06073C16.6481 4.3022 17.9281 7.46427 18.0001 11.9072C18.0041 12.4008 17.7521 12.6944 17.2334 13.3348C14.3748 16.8971 13.9628 18.9785 13.9628 24.1552C13.9628 28.2112 13.8881 30.426 13.1894 32.8542C13.0214 33.2812 12.6721 33.5614 12.0734 33.7348C10.3974 34.0817 8.68141 34.095 6.92673 33.7348Z" stroke="#B39D79" stroke-width="0.999997" stroke-miterlimit="79.8403"/>
<path fill-rule="evenodd" clip-rule="evenodd" d="M9.50039 17.5505L9.05772 17.5104C8.70838 17.4437 8.48971 17.2035 8.50037 16.6165L8.53638 15.5358C8.60168 14.0281 8.97905 13.5345 9.50039 13.5078C10.0217 13.5345 10.3991 14.0281 10.4644 15.5358L10.5004 16.6165C10.5111 17.2035 10.2924 17.4437 9.94305 17.5104L9.50039 17.5505Z" fill="#B39D79"/>
<path fill-rule="evenodd" clip-rule="evenodd" d="M8.74399 22.9807C8.60133 22.1668 8.51733 21.3129 8.50266 20.4056C8.47196 19.8319 8.708 19.5384 9.15467 19.5117H9.83333C10.292 19.5117 10.4853 19.8319 10.4707 20.4056C10.4587 21.3396 10.3653 22.1935 10.224 22.9807C10.2067 23.3676 9.81601 23.5143 9.48401 23.5143C9.152 23.5143 8.76266 23.3676 8.74399 22.9807Z" fill="#B39D79"/>
<path fill-rule="evenodd" clip-rule="evenodd" d="M13.4881 7.1442L14.4468 5.22295C14.5694 4.98279 14.4695 4.6759 14.2228 4.55582C13.9761 4.43574 13.6748 4.52912 13.5521 4.78266L12.5934 6.7039C12.4707 6.94407 12.5707 7.25092 12.8174 7.371C13.0641 7.49108 13.3654 7.39772 13.4881 7.1442Z" fill="#B39D79"/>
<path fill-rule="evenodd" clip-rule="evenodd" d="M6.18172 7.37099C6.42839 7.25091 6.52839 6.94407 6.40572 6.7039L5.44706 4.78265C5.3244 4.52914 5.02306 4.43574 4.77639 4.55582C4.52973 4.6759 4.42973 4.98278 4.55239 5.22294L5.51105 7.14419C5.63372 7.39769 5.93505 7.49107 6.18172 7.37099Z" fill="#B39D79"/>
<path fill-rule="evenodd" clip-rule="evenodd" d="M14.4874 10.1195L15.4461 8.23822C15.5714 7.98473 15.4728 7.6912 15.2261 7.55778C14.9808 7.4377 14.6794 7.53105 14.5541 7.78458L13.5954 9.66583C13.4701 9.906 13.5687 10.2128 13.8154 10.3329C14.0607 10.4664 14.3621 10.3597 14.4874 10.1195Z" fill="#B39D79"/>
<path fill-rule="evenodd" clip-rule="evenodd" d="M5.18506 10.3329C5.43173 10.2128 5.5304 9.90599 5.40507 9.66582L4.4464 7.78458C4.32106 7.53107 4.01973 7.4377 3.77439 7.55778C3.52773 7.69119 3.42906 7.98472 3.55439 8.23822L4.51305 10.1195C4.63839 10.3596 4.93973 10.4663 5.18506 10.3329Z" fill="#B39D79"/>
<path fill-rule="evenodd" clip-rule="evenodd" d="M14.4874 14.1224L15.4461 12.2412C15.5714 11.9877 15.4728 11.6941 15.2261 11.5607C14.9808 11.4406 14.6794 11.534 14.5541 11.7875L13.5954 13.6688C13.4701 13.9223 13.5687 14.2158 13.8154 14.3492C14.0607 14.4693 14.3621 14.3759 14.4874 14.1224Z" fill="#B39D79"/>
<path fill-rule="evenodd" clip-rule="evenodd" d="M5.18506 14.3492C5.43173 14.2158 5.5304 13.9223 5.40507 13.6688L4.4464 11.7875C4.32106 11.534 4.01973 11.4406 3.77439 11.5607C3.52773 11.6941 3.42906 11.9877 3.55439 12.2412L4.51305 14.1224C4.63839 14.3759 4.93973 14.4693 5.18506 14.3492Z" fill="#B39D79"/>
<path fill-rule="evenodd" clip-rule="evenodd" d="M11.2342 26.1299C12.0982 20.9666 12.1942 17.0573 11.7035 11.1868C11.6182 10.2395 10.3262 10.0527 9.50084 10.0527C8.6755 10.0527 7.38216 10.2395 7.29816 11.1868C6.80749 17.0573 6.87416 20.9666 7.73816 26.1299C7.96616 27.1573 8.63283 27.9978 9.48617 27.9978C10.3395 27.9978 11.0048 27.1573 11.2342 26.1299V26.1299Z" stroke="#B39D79" stroke-width="0.999997" stroke-miterlimit="79.8403"/>
</g>
</svg>
